<svg width="47" height="46" viewBox="0 0 47 46" fill="none" xmlns="http://www.w3.org/2000/svg">
<path d="M38.6768 0.00488281C43.2788 0.00488281 46.9999 3.73883 47 8.35742V37.6426C46.9998 42.2612 43.2787 45.9951 38.6768 45.9951H8.32324C3.72126 45.9951 0.00016135 42.2612 0 37.6426V8.35742C0.000142381 3.73883 3.72125 0.00488281 8.32324 0.00488281H38.6768ZM39.8516 10.0869H35.877C35.7399 10.0869 35.6807 10.1661 35.6807 10.3037V16.5146C35.4457 16.495 35.2495 16.4943 35.0732 16.4746C34.8972 16.455 34.7599 16.4551 34.6621 16.4551C32.7236 16.4551 31.0787 16.8284 29.708 17.5947C28.4155 18.3023 27.3379 19.3641 26.5938 20.6416C25.8693 21.8993 25.4971 23.3339 25.5166 24.7881C25.5166 26.5765 25.8693 28.0707 26.5938 29.2695C27.2987 30.429 28.3172 31.3724 29.5508 31.9424C30.8629 32.5517 32.3126 32.8468 33.7617 32.8271C34.78 32.8271 35.7787 32.7286 36.7773 32.5518C37.874 32.3552 38.9514 32.0408 39.9697 31.6084C40.1067 31.5494 40.165 31.4315 40.165 31.2939C40.1455 30.9599 40.1261 30.5669 40.0869 30.1543C40.0673 29.7219 40.0479 29.3284 40.0479 28.9746V10.2246C40.0282 10.1461 39.9494 10.0673 39.8516 10.0869ZM7.20703 11.7969C7.1287 11.7969 7.04991 11.817 7.01074 11.876C6.97172 11.9153 6.99118 11.9938 7.0498 12.0723L12.9834 22.1553L6.89355 32.1787C6.85441 32.2377 6.83494 32.3159 6.85449 32.3945C6.85449 32.4928 6.91288 32.4541 6.99121 32.4541H11.2998C11.5151 32.4541 11.6717 32.4338 11.75 32.2373C12.2004 31.4315 12.6512 30.5862 13.1016 29.7607C13.5323 28.9354 13.9823 28.0901 14.4326 27.2451C14.883 26.4 15.3339 25.5551 15.7451 24.71H15.7842C16.2541 25.5747 16.7244 26.4196 17.1943 27.2646C17.6643 28.1097 18.1142 28.9355 18.5254 29.7412C18.9366 30.5667 19.368 31.3728 19.7793 32.1982C19.9164 32.3946 20.1321 32.4141 20.4453 32.4141H24.9297C25.047 32.3945 25.1249 32.4535 25.1445 32.375C25.1641 32.2965 25.1446 32.2182 25.1055 32.1396L18.8389 21.8203L24.7139 12.0918C24.753 12.0525 24.792 11.9738 24.7725 11.9541C24.7577 11.8807 24.6994 11.8294 24.6299 11.8164H20.4258C20.3279 11.7968 20.2492 11.8171 20.1709 11.8564C20.1122 11.8957 20.0733 11.9742 20.0537 12.0527C19.6229 12.8586 19.1916 13.7038 18.7412 14.5293C18.2908 15.3547 17.84 16.1804 17.4092 17.0059C16.9784 17.8312 16.5479 18.6764 16.1367 19.541H16.0977C15.6864 18.6959 15.2552 17.8704 14.7852 17.0449C14.2956 16.2195 13.845 15.3939 13.375 14.5488C12.9246 13.7038 12.4941 12.8587 12.1221 12.0137C12.0633 11.9351 12.0041 11.8762 11.9258 11.8369C11.8476 11.8173 11.75 11.7969 11.6523 11.7969H7.20703ZM34.5059 20.1113C34.7212 20.1113 34.937 20.1307 35.1523 20.1504C35.3284 20.17 35.5046 20.2088 35.6807 20.248V28.8965C35.4457 28.9751 35.2301 29.0138 34.9756 28.9941C34.7211 29.0138 34.447 29.0342 34.1533 29.0342C33.6051 29.0342 33.0569 28.9551 32.5283 28.7783C32.0192 28.6211 31.5684 28.3459 31.1963 27.9922C30.8046 27.5991 30.5113 27.1273 30.3154 26.5967C30.0804 25.9481 29.9628 25.2602 29.9824 24.5723C29.9824 23.5503 30.1971 22.7051 30.6279 22.0762C31.0588 21.4472 31.6271 20.9562 32.293 20.6221C32.9784 20.2683 33.7421 20.1113 34.5059 20.1113Z" fill="white"/>
</svg>
