<svg width="57" height="48" viewBox="0 0 57 48" fill="none" xmlns="http://www.w3.org/2000/svg">
<path d="M41.1239 44.8806H23.3665C22.0727 44.8806 20.8319 44.3666 19.917 43.4517C19.0021 42.5368 18.4882 41.296 18.4882 40.0022C18.4882 38.7083 19.0021 37.4675 19.917 36.5526C20.8319 35.6378 22.0727 35.1238 23.3665 35.1238H27.9278L11.6828 18.6592C10.8276 17.8253 10.3081 16.7067 10.2227 15.5154C10.1373 14.324 10.4919 13.1427 11.2194 12.1954C11.6556 11.6691 12.204 11.2471 12.8244 10.9601C13.4448 10.6731 14.1215 10.5285 14.805 10.5367C15.4163 10.5242 16.0237 10.6368 16.5899 10.8675C17.1562 11.0982 17.6693 11.4421 18.0979 11.8783L28.001 21.7814L37.9529 14.3175C38.8515 13.6431 39.9635 13.3161 41.084 13.3968C42.2046 13.4775 43.2582 13.9604 44.0509 14.7565C48.6587 19.374 52.1249 25.0034 54.1736 31.1967L54.3199 31.6601" stroke="#F8F8F8" stroke-width="4.65886" stroke-miterlimit="10"/>
<path d="M25.4156 19.2934C26.0494 17.7896 26.357 16.1685 26.3181 14.537C26.2939 12.2322 25.5871 9.98629 24.287 8.08301C22.987 6.17973 21.1519 4.70448 19.0138 3.84366C16.8757 2.98284 14.5304 2.77506 12.2742 3.24658C10.018 3.7181 7.95221 4.84777 6.33778 6.49284C4.72336 8.13792 3.63275 10.2246 3.20374 12.4892C2.77474 14.7539 3.02659 17.0949 3.92747 19.2164C4.82835 21.338 6.33785 23.145 8.26524 24.409C10.1926 25.673 12.4514 26.3375 14.7563 26.3183C16.0433 26.322 17.3217 26.1076 18.537 25.6841" stroke="#F8F8F8" stroke-width="4.65886" stroke-miterlimit="10"/>
</svg>
