<svg width="44" height="44" viewBox="0 0 44 44" fill="none" xmlns="http://www.w3.org/2000/svg">
<path d="M38.3262 0C41.4595 0 44 2.54003 44 5.67383V38.3262C44 41.4595 41.46 44 38.3262 44H5.67383C2.54055 44 0 41.4598 0 38.3262V5.67383C0 2.54055 2.54003 0 5.67383 0H38.3262ZM12.3877 35.3203H25.2979C26.4917 35.3203 27.6545 35.1715 28.7861 34.873C29.9179 34.5745 30.9255 34.114 31.8086 33.4922C32.6914 32.8704 33.3947 32.0683 33.917 31.0859C34.4395 30.1033 34.7002 28.9399 34.7002 27.5967C34.7002 25.93 34.2956 24.5057 33.4873 23.3242C32.6788 22.1429 31.4539 21.3163 29.8125 20.8438C31.0065 20.2717 31.9081 19.5371 32.5176 18.6416C33.1268 17.7462 33.4316 16.6273 33.4316 15.2842C33.4316 14.0405 33.2268 12.9952 32.8164 12.1494C32.406 11.3038 31.8273 10.6261 31.0811 10.1162C30.3349 9.60626 29.4394 9.23941 28.3945 9.01562C27.3499 8.79169 26.1933 8.6797 24.9248 8.67969H12.3877V35.3203ZM24.626 23.4551C25.8945 23.4551 26.9144 23.7474 27.6855 24.332C28.4565 24.9166 28.8427 25.8927 28.8428 27.2607C28.8428 27.9574 28.7246 28.5298 28.4883 28.9775C28.252 29.4252 27.9342 29.78 27.5361 30.041C27.1384 30.3021 26.6783 30.4886 26.1562 30.6006C25.6339 30.7123 25.0866 30.7685 24.5146 30.7686H18.2461V23.4551H24.626ZM23.7305 13.2314C24.253 13.2314 24.7572 13.2752 25.2422 13.3623C25.727 13.4493 26.1563 13.6052 26.5293 13.8291C26.9021 14.053 27.2009 14.3639 27.4248 14.7617C27.6485 15.1597 27.7607 15.6696 27.7607 16.291C27.7607 17.4104 27.4246 18.2194 26.7529 18.7168C26.0815 19.2143 25.2233 19.4628 24.1787 19.4629H18.2461V13.2314H23.7305Z" fill="white"/>
</svg>
