<svg width="68" height="68" viewBox="0 0 68 68" fill="none" xmlns="http://www.w3.org/2000/svg">
<path d="M34.0001 11.3333L14.1667 19.8333L34.0001 28.3333L53.8334 19.8333L34.0001 11.3333Z" stroke="white" stroke-linejoin="round"/>
<path fill-rule="evenodd" clip-rule="evenodd" d="M27.5213 27.7326L13.9698 33.5404C13.7859 33.6192 13.6667 33.8 13.6667 34C13.6667 34.2 13.7859 34.3808 13.9698 34.4596L33.8031 42.9596C33.9289 43.0135 34.0713 43.0135 34.197 42.9596L54.0304 34.4596C54.2142 34.3808 54.3334 34.2 54.3334 34C54.3334 33.8 54.2142 33.6192 54.0304 33.5404L40.4789 27.7326L39.2096 28.2766L52.5641 34L34.0001 41.956L15.436 34L28.7906 28.2766L27.5213 27.7326ZM34.1324 26.1007L34.0001 26.044L33.8678 26.1007L32.5985 25.5567L33.8031 25.0404C33.9289 24.9865 34.0713 24.9865 34.197 25.0404L35.4017 25.5567L34.1324 26.1007Z" fill="white"/>
<path fill-rule="evenodd" clip-rule="evenodd" d="M27.5213 41.8993L13.9698 47.7071C13.7859 47.7859 13.6667 47.9667 13.6667 48.1667C13.6667 48.3667 13.7859 48.5475 13.9698 48.6263L33.8031 57.1263C33.9289 57.1802 34.0713 57.1802 34.197 57.1263L54.0304 48.6263C54.2142 48.5475 54.3334 48.3667 54.3334 48.1667C54.3334 47.9667 54.2142 47.7859 54.0304 47.7071L40.4789 41.8993L39.2096 42.4433L52.5641 48.1667L34.0001 56.1227L15.436 48.1667L28.7906 42.4433L27.5213 41.8993ZM34.1324 40.2674L34.0001 40.2107L33.8678 40.2674L32.5985 39.7234L33.8031 39.2071C33.9289 39.1532 34.0713 39.1532 34.197 39.2071L35.4017 39.7234L34.1324 40.2674Z" fill="white"/>
</svg>
