<svg width="48" height="67" viewBox="0 0 48 67" fill="none" xmlns="http://www.w3.org/2000/svg">
<g clip-path="url(#clip0_37_69)">
<path d="M31.5167 24.2002L24.8679 30.439L18.696 17.8881L21.8844 10.6715C22.6902 9.23198 24.0081 9.21297 24.814 10.6715L31.5167 24.2002Z" fill="#DBDBDF"/>
<path d="M24.8705 30.4363L0 53.7483L18.6987 17.8881L24.8705 30.4363Z" fill="#DBDBDF"/>
<path d="M38.807 14.6586C39.9982 13.5151 41.2245 13.9008 41.5344 15.525L48 53.4332L26.555 66.4078C25.803 66.8315 23.8086 66.9972 23.8086 66.9972C23.8086 66.9972 21.9948 66.7745 21.2995 66.3888L0 53.7482L38.807 14.6586Z" fill="white"/>
<path d="M18.6987 17.8883L0 53.7485L8.33329 1.33381C8.64593 -0.290401 9.55957 -0.456081 10.3843 0.983436L18.6987 17.8883Z" fill="white"/>
</g>
<defs>
<clipPath id="clip0_37_69">
<rect width="48" height="67" fill="white"/>
</clipPath>
</defs>
</svg>
