<svg width="73" height="55" viewBox="0 0 73 55" fill="none" xmlns="http://www.w3.org/2000/svg">
<g clip-path="url(#clip0_37_61)">
<path d="M62.8198 31.5963C60.2677 31.6108 58.0577 32.2265 56.2042 33.1433C55.5198 31.7827 54.8354 30.5937 54.7215 29.7058C54.5932 28.6746 54.4364 28.0442 54.5932 26.8126C54.7499 25.5807 55.4628 23.8333 55.4628 23.6901C55.4484 23.5612 55.3058 22.9309 53.8374 22.9166C52.369 22.9023 51.0999 23.2031 50.9573 23.5898C50.8147 23.9765 50.5296 24.8645 50.3442 25.7812C50.0876 27.1276 47.4071 31.8971 45.8815 34.4036C45.3825 33.4296 44.9548 32.5703 44.8691 31.8826C44.7409 30.8515 44.5839 30.2212 44.7409 28.9895C44.8977 27.7576 45.6106 26.0104 45.6106 25.8671C45.5964 25.7382 45.4538 25.108 43.9854 25.0937C42.5167 25.0794 41.2479 25.3802 41.1053 25.7669C40.9627 26.1536 40.8059 27.0703 40.4922 27.9583C40.1927 28.8463 36.6282 36.8099 35.7015 38.8867C35.2309 39.9466 34.8176 40.7916 34.5181 41.3645C34.2186 41.9375 34.5038 41.4075 34.4753 41.4648C34.2186 41.9518 34.0761 42.2239 34.0761 42.2239V42.2384C33.8765 42.5965 33.6626 42.9401 33.5626 42.9401C33.4913 42.9401 33.3488 41.9804 33.5912 40.6629C34.1187 37.8984 35.4019 33.5873 35.3878 33.4298C35.3878 33.3582 35.63 32.5989 34.5607 32.2123C33.5199 31.8256 33.1493 32.4702 33.0636 32.4702C32.9781 32.4702 32.9068 32.6993 32.9068 32.6993C32.9068 32.6993 34.0617 27.844 30.6968 27.844C28.5867 27.844 25.6781 30.15 24.238 32.2555C23.3255 32.7568 21.3865 33.8165 19.3333 34.9482C18.5492 35.3778 17.7365 35.8362 16.9665 36.2515L16.8099 36.0794C12.7321 31.7109 5.18973 28.6171 5.50341 22.7448C5.61747 20.6106 6.35887 14.9817 19.9895 8.16402C31.1534 2.57809 40.093 4.11064 41.647 7.51949C43.8569 12.3893 36.8706 21.4414 25.2649 22.7448C20.845 23.2461 18.5208 21.5273 17.9364 20.8828C17.3233 20.2096 17.2377 20.181 17.0096 20.3099C16.6389 20.5104 16.867 21.1119 17.0096 21.47C17.3518 22.3724 18.7776 23.9765 21.2014 24.7786C23.3257 25.4804 28.5157 25.8671 34.7891 23.4323C41.8182 20.6966 47.3075 13.1054 45.6963 6.76038C44.0567 0.300743 33.3918 -1.81905 23.3116 1.776C17.3089 3.92444 10.8073 7.276 6.13075 11.6731C0.570202 16.8867 -0.313782 21.4414 0.0569209 23.332C1.35452 30.0781 10.6077 34.4752 14.3147 37.7265C14.1294 37.8266 13.9583 37.9269 13.8015 38.013C11.9479 38.9295 4.89032 42.6393 3.12235 46.5636C1.12626 51.0037 3.43602 54.1979 4.97587 54.6276C9.73798 55.9596 14.6141 53.5677 17.2518 49.6289C19.8751 45.6901 19.5616 40.5768 18.3497 38.2421L18.3068 38.1562L19.7611 37.2968C20.7022 36.7382 21.629 36.2226 22.4415 35.7785C21.9854 37.0246 21.6574 38.4998 21.4864 40.6483C21.2868 43.1692 22.3134 46.4347 23.6679 47.7238C24.2667 48.2822 24.9796 48.2967 25.4216 48.2967C26.9899 48.2967 27.7028 46.9932 28.487 45.4321C29.4565 43.5272 30.312 41.3214 30.312 41.3214C30.312 41.3214 29.2427 47.2941 32.1655 47.2941C33.2349 47.2941 34.3042 45.9048 34.789 45.1886V45.2029C34.789 45.2029 34.8175 45.16 34.8745 45.0597C34.9343 44.9709 34.9914 44.8801 35.0456 44.7877V44.7591C35.4733 44.0143 36.4286 42.3099 37.8544 39.4882C39.6935 35.8502 41.4616 31.2955 41.4616 31.2955C41.4616 31.2955 41.6327 32.4127 42.1602 34.2461C42.4738 35.3347 43.1581 36.5234 43.6857 37.6836C43.2579 38.2851 43.0013 38.629 43.0013 38.629L43.0156 38.6433C42.6735 39.1017 42.2884 39.5888 41.8893 40.0756C40.435 41.823 38.6956 43.814 38.4675 44.387C38.1966 45.06 38.2536 45.5613 38.7811 45.9625C39.1661 46.2489 39.8505 46.3061 40.5776 46.2489C41.8893 46.1629 42.8018 45.8336 43.2581 45.6329C43.971 45.3751 44.7837 44.9884 45.5679 44.4155C46.9936 43.3557 47.8634 41.8518 47.7778 39.8466C47.735 38.7437 47.3786 37.6552 46.9366 36.6239C47.0649 36.4377 47.1934 36.2514 47.3216 36.051C49.5743 32.7423 51.3138 29.1044 51.3138 29.1044C51.3138 29.1044 51.4848 30.2216 52.0124 32.0549C52.2831 32.9859 52.8251 34.003 53.3098 35.0056C51.1997 36.7387 49.8737 38.7439 49.4175 40.0616C48.5763 42.4965 49.2321 43.5993 50.4725 43.8572C51.0285 43.9717 51.827 43.7139 52.4257 43.4561C53.1671 43.2126 54.0654 42.7971 54.8925 42.1814C56.3182 41.1215 57.687 39.6462 57.6157 37.6553C57.5729 36.7387 57.3306 35.8363 57.0026 34.977C58.7991 34.2322 61.123 33.8025 64.0745 34.1605C70.4192 34.9053 71.6739 38.8871 71.4317 40.5486C71.1893 42.2102 69.8633 43.1267 69.4212 43.4132C68.9792 43.6853 68.8366 43.7857 68.8794 43.9861C68.9364 44.287 69.136 44.2725 69.521 44.2154C70.0485 44.1293 72.8573 42.8547 72.9714 39.7897C73.1425 35.8504 69.4212 31.5535 62.8198 31.5963ZM13.887 48.1679C11.7911 50.4739 8.83973 51.3476 7.58505 50.6028C6.23055 49.8151 6.75795 46.4205 9.33876 43.9713C10.9071 42.4817 12.946 41.1067 14.2862 40.2617C14.5856 40.0755 15.0419 39.8035 15.5837 39.4739C15.6692 39.4168 15.7263 39.388 15.7263 39.388C15.8261 39.3307 15.9401 39.2591 16.0542 39.1875C17.0095 42.6823 16.097 45.7474 13.887 48.1679ZM29.2141 37.6979C28.487 39.4882 26.9472 44.0859 26.0204 43.8281C25.2218 43.6132 24.7372 40.1328 25.8634 36.6953C26.4337 34.9621 27.6456 32.8997 28.3585 32.0975C29.5136 30.8084 30.7681 30.3787 31.0819 30.9087C31.4526 31.5963 29.6704 36.5807 29.2141 37.6979ZM41.8608 43.7708C41.5472 43.9285 41.262 44.0429 41.1337 43.9571C41.0339 43.8998 41.2619 43.685 41.2619 43.685C41.2619 43.685 42.8445 41.9806 43.4718 41.1928C43.8283 40.7346 44.256 40.2047 44.7122 39.603V39.7748C44.7124 41.8372 42.7448 43.2122 41.8608 43.7708ZM51.613 41.5364C51.3849 41.3645 51.4136 40.8346 52.1833 39.1731C52.4829 38.5143 53.1671 37.4114 54.3505 36.3658C54.4931 36.7955 54.5788 37.2108 54.5644 37.5976C54.5503 40.1757 52.7253 41.1354 51.613 41.5364Z" fill="white"/>
</g>
<defs>
<clipPath id="clip0_37_61">
<rect width="73" height="55" fill="white"/>
</clipPath>
</defs>
</svg>
